<svg xmlns="http://www.w3.org/2000/svg" width="40" height="40" viewBox="0 0 40 40">
  <g id="グループ_30" data-name="グループ 30" transform="translate(-526 -1331)">
    <rect id="長方形_230" data-name="長方形 230" width="40" height="40" transform="translate(526 1331)" fill="none"/>
    <rect id="長方形_219" data-name="長方形 219" width="18" height="4" transform="translate(526 1333)"/>
    <rect id="長方形_220" data-name="長方形 220" width="18" height="4" transform="translate(548 1333)"/>
    <rect id="長方形_221" data-name="長方形 221" width="10.5" height="4" transform="translate(526 1341)"/>
    <rect id="長方形_241" data-name="長方形 241" width="10.5" height="4" transform="translate(526 1357)"/>
    <rect id="長方形_240" data-name="長方形 240" width="18" height="4" transform="translate(548 1365)"/>
    <rect id="長方形_222" data-name="長方形 222" width="10.5" height="4" transform="translate(540.5 1341)"/>
    <rect id="長方形_242" data-name="長方形 242" width="10.5" height="4" transform="translate(540.5 1357)"/>
    <rect id="長方形_224" data-name="長方形 224" width="7" height="4" transform="translate(526 1349)"/>
    <rect id="長方形_236" data-name="長方形 236" width="18" height="4" transform="translate(537 1349)"/>
    <rect id="長方形_237" data-name="長方形 237" width="7" height="4" transform="translate(548 1349)"/>
    <rect id="長方形_238" data-name="長方形 238" width="7" height="4" transform="translate(559 1349)"/>
    <rect id="長方形_223" data-name="長方形 223" width="11" height="4" transform="translate(555 1341)"/>
    <rect id="長方形_243" data-name="長方形 243" width="11" height="4" transform="translate(555 1357)"/>
    <rect id="長方形_239" data-name="長方形 239" width="18" height="4" transform="translate(526 1365)"/>
  </g>
</svg>
